:FULLY-SPECIFIED
:FORCE-ALL-JOINTS-BE-3DOF
:DEGREES
130
root 9.07471 16.1104 -19.115 5.74407 7.43514 4.92553
lfemur 17.1182 1.5006 -26.1485
ltibia 4.62825 -0 0
lfoot -13.5203 0.832464 0.205305
ltoes -7.37823 0 0
rfemur -42.0537 10.8556 6.16675
rtibia 24.7116 -0 0
rfoot -23.4297 -11.8553 0.131299
rtoes -21.5197 0 0
lowerback -8.1704 -3.70968 -5.96838
upperback -1.22068 -4.4904 2.22056
thorax 3.95215 -2.33796 5.13183
lowerneck -19.3164 -5.6389 -13.4888
upperneck 20.6174 -6.62226 11.3891
head 10.6829 -2.80631 5.37894
lclavicle -2.54444e-14 2.3059e-14 0
lhumerus -31.3263 -25.5422 97.2904
lradius 40.0106 -0 0
lwrist 10.3963 0 0
lhand -10.003 -23.7649 0.0507627
lfingers 7.12502 -0 0
lthumb 15.9786 5.56657 0.0399724
rclavicle -2.54444e-14 2.3059e-14 0
rhumerus -47.1637 6.82637 -82.465
rradius 33.288 -0 0
rwrist -18.0286 0 0
rhand -29.4809 -23.604 -0.00546878
rfingers 7.12502 -0 0
rthumb -2.81607 -53.5651 -0.00526777
131
root 9.05028 16.1263 -18.9624 5.80438 7.59412 4.80935
lfemur 16.8199 1.61552 -25.8219
ltibia 5.82069 -0 0
lfoot -13.0952 1.07501 0.246254
ltoes -7.55185 0 0
rfemur -41.8755 10.7028 6.52049
rtibia 24.653 -0 0
rfoot -23.2111 -11.5613 0.156952
rtoes -21.4427 0 0
lowerback -8.10157 -3.68303 -5.85292
upperback -1.23244 -4.46917 2.24897
thorax 3.89343 -2.32457 5.10133
lowerneck -19.2883 -5.68811 -13.5262
upperneck 20.4811 -6.69162 11.4597
head 10.6444 -2.83268 5.3978
lclavicle -2.54444e-14 2.3059e-14 0
lhumerus -31.7026 -25.3236 97.4001
lradius 39.7732 -0 0
lwrist 10.2912 0 0
lhand -9.74981 -23.6317 0.0605935
lfingers 7.12502 -0 0
lthumb 16.222 5.67427 0.04774
rclavicle -2.54444e-14 2.3059e-14 0
rhumerus -47.1691 6.84556 -82.4052
rradius 33.2304 -0 0
rwrist -18.0038 0 0
rhand -29.4305 -23.6712 -0.00669305
rfingers 7.12502 -0 0
rthumb -2.76746 -53.633 -0.00644432
132
root 9.02585 16.1423 -18.8099 5.86577 7.74658 4.68385
lfemur 16.472 1.74204 -25.4778
ltibia 7.11334 -0 0
lfoot -12.6449 1.34201 0.287401
ltoes -7.7279 0 0
rfemur -41.6694 10.5295 6.90884
rtibia 24.6518 -0 0
rfoot -22.9716 -11.2512 0.1827
rtoes -21.3496 0 0
lowerback -8.02486 -3.65252 -5.72866
upperback -1.24533 -4.44383 2.27946
thorax 3.82816 -2.3089 5.06876
lowerneck -19.2624 -5.73842 -13.5638
upperneck 20.3357 -6.76257 11.5354
head 10.6035 -2.85919 5.41799
lclavicle -2.54444e-14 2.3059e-14 0
lhumerus -32.0924 -25.0781 97.5015
lradius 39.5067 -0 0
lwrist 10.1697 0 0
lhand -9.4803 -23.4892 0.0703441
lfingers 7.12502 -0 0
lthumb 16.4811 5.78981 0.0554518
rclavicle -2.54444e-14 2.3059e-14 0
rhumerus -47.1718 6.87337 -82.3494
rradius 33.1749 -0 0
rwrist -17.9806 0 0
rhand -29.378 -23.7416 -0.00795156
rfingers 7.12502 -0 0
rthumb -2.71671 -53.7042 -0.00765292
133
root 9.00142 16.1583 -18.6573 5.92805 7.89257 4.54958
lfemur 16.0767 1.87988 -25.1178
ltibia 8.49868 -0 0
lfoot -12.1717 1.63188 0.328106
ltoes -7.90615 0 0
rfemur -41.4367 10.3369 7.32936
rtibia 24.6552 -0 0
rfoot -22.7127 -10.9261 0.208183
rtoes -21.2414 0 0
lowerback -7.94079 -3.61834 -5.59613
upperback -1.25924 -4.41451 2.31188
thorax 3.7568 -2.29103 5.03425
lowerneck -19.2384 -5.78972 -13.6015
upperneck 20.1817 -6.8349 11.6156
head 10.5605 -2.88579 5.43943
lclavicle -2.54444e-14 2.3059e-14 0
lhumerus -32.4944 -24.8072 97.5943
lradius 39.2129 -0 0
lwrist 10.033 0 0
lhand -9.19593 -23.338 0.0798455
lfingers 7.12502 -0 0
lthumb 16.7544 5.91255 0.0629742
rclavicle -2.54444e-14 2.3059e-14 0
rhumerus -47.1718 6.90935 -82.2976
rradius 33.1219 -0 0
rwrist -17.9593 0 0
rhand -29.3235 -23.815 -0.00922484
rfingers 7.12502 -0 0
rthumb -2.66411 -53.7783 -0.00887479
134
root 8.97699 16.1743 -18.5047 5.99107 8.03211 4.40708
lfemur 15.6365 2.02873 -24.7435
ltibia 9.96918 -0 0
lfoot -11.6777 1.94302 0.367749
ltoes -8.08637 0 0
rfemur -41.1791 10.1258 7.7796
rtibia 24.7107 -0 0
rfoot -22.4359 -10.5872 0.233046
rtoes -21.1188 0 0
lowerback -7.8499 -3.5807 -5.45586
upperback -1.27408 -4.38133 2.34608
thorax 3.6798 -2.27106 4.9979
lowerneck -19.2162 -5.84188 -13.6393
upperneck 20.0198 -6.90841 11.7003
head 10.5155 -2.91246 5.46203
lclavicle -2.54444e-14 2.3059e-14 0
lhumerus -32.9072 -24.5127 97.6785
lradius 38.8939 -0 0
lwrist 9.88199 0 0
lhand -8.89814 -23.1789 0.0889364
lfingers 7.12502 -0 0
lthumb 17.0406 6.04186 0.0701798
rclavicle -2.54444e-14 2.3059e-14 0
rhumerus -47.1688 6.95302 -82.2496
rradius 33.0736 -0 0
rwrist -17.94 0 0
rhand -29.2674 -23.8913 -0.0104942
rfingers 7.12502 -0 0
rthumb -2.60995 -53.8553 -0.0100919
135
root 8.95255 16.1903 -18.3522 6.05467 8.16526 4.25691
lfemur 15.1539 2.18828 -24.3567
ltibia 11.5173 -0 0
lfoot -11.1652 2.27383 0.405735
ltoes -8.26836 0 0
rfemur -40.8979 9.89737 8.25713
rtibia 24.7989 -0 0
rfoot -22.1426 -10.2353 0.256952
rtoes -20.9827 0 0
lowerback -7.7527 -3.5398 -5.30839
upperback -1.28974 -4.34444 2.38192
thorax 3.59765 -2.24907 4.95982
lowerneck -19.1957 -5.89478 -13.6769
upperneck 19.8506 -6.98288 11.7889
head 10.4686 -2.93914 5.4857
lclavicle -2.54444e-14 2.3059e-14 0
lhumerus -33.3299 -24.1962 97.754
lradius 38.5513 -0 0
lwrist 9.71797 0 0
lhand -8.58835 -23.0126 0.0974661
lfingers 7.12502 -0 0
lthumb 17.3384 6.17708 0.0769493
rclavicle -2.54444e-14 2.3059e-14 0
rhumerus -47.1628 7.00394 -82.2052
rradius 33.0247 -0 0
rwrist -17.9228 0 0
rhand -29.21 -23.9702 -0.0117418
rfingers 7.12502 -0 0
rthumb -2.55451 -53.935 -0.0112871
